<?xml version="1.0" standalone="no"?>
<!DOCTYPE svg PUBLIC "-//W3C//DTD SVG 1.1//EN" "http://www.w3.org/Graphics/SVG/1.1/DTD/svg11.dtd" >
<svg xmlns="http://www.w3.org/2000/svg" xmlns:xlink="http://www.w3.org/1999/xlink" version="1.1">
<metadata>
Created by FontForge 20161013 at Sat Feb 14 21:38:37 2015
 By ,,,
Copyright (c) 2014 by Youssef Habchi. All rights reserved.
</metadata>
<defs>
<font id="OrmontLight" horiz-adv-x="715" >
  <font-face 
    font-family="Ormont"
    font-weight="300"
    font-stretch="normal"
    units-per-em="1000"
    panose-1="2 0 5 3 2 0 0 2 0 4"
    ascent="800"
    descent="-200"
    x-height="613"
    cap-height="803"
    bbox="-112 -227 1210 994"
    underline-thickness="49"
    underline-position="-243"
    unicode-range="U+0020-2122"
  />
<missing-glyph horiz-adv-x="408" 
 />
    <glyph glyph-name=".notdef" horiz-adv-x="408" 
 />
    <glyph glyph-name=".null" horiz-adv-x="0" 
 />
    <glyph glyph-name="nonmarkingreturn" horiz-adv-x="333" 
 />
    <glyph glyph-name="space" unicode=" " horiz-adv-x="408" 
 />
    <glyph glyph-name="exclam" unicode="!" horiz-adv-x="390" 
d="M98 38q0 37 38 37q37 0 37 -37q0 -38 -37 -38q-38 0 -38 38zM122 179v624h26v-624h-26z" />
    <glyph glyph-name="quotedbl" unicode="&#x22;" horiz-adv-x="232" 
d="M0 685v116h27v-116h-27zM77 685v116h27v-116h-27z" />
    <glyph glyph-name="numbersign" unicode="#" horiz-adv-x="1023" 
d="M0 0l258 331h-220v26h241l103 132h-246v27h266l224 287h32l-223 -287h189l223 287h33l-224 -287h217v-27h-238l-103 -132h243v-26h-264l-257 -331h-33l258 331h-189l-258 -331h-32zM500 357l103 132h-189l-103 -132h189z" />
    <glyph glyph-name="dollar" unicode="$" 
d="M593 253q0 -102 -64.5 -175.5t-167.5 -77.5h-361v27h274v452h-118q-65 2 -110.5 49.5t-45.5 112.5q0 66 46 113t111 49h291v-27h-147v-271h40q104 0 178 -74t74 -178zM341 479h-40v-452h58q91 0 149.5 64t58.5 162q0 94 -66 160t-160 66zM162 505h112v271h-112
q-56 0 -95.5 -39.5t-39.5 -95.5t39.5 -96t95.5 -40z" />
    <glyph glyph-name="percent" unicode="%" horiz-adv-x="818" 
d="M623 803h33l-626 -803h-33zM549 214q43 0 74.5 -31t31.5 -75t-31.5 -75t-74.5 -31t-74.5 31t-31.5 75t31.5 75t74.5 31zM549 29q33 0 56 23t23 56t-23 56t-56 23t-56 -23t-23 -56t23 -56t56 -23zM109 589q-43 0 -74.5 31.5t-31.5 74.5t31.5 74.5t74.5 31.5t74 -31t31 -75
t-31 -75t-74 -31zM109 774q-33 0 -56 -23t-23 -56t23 -56t56 -23t56 23t23 56t-23 56t-56 23z" />
    <glyph glyph-name="ampersand" unicode="&#x26;" horiz-adv-x="744" 
d="M666 0h-32l-114 145q-19 -36 -48 -64q-80 -82 -196 -82t-196 82q-81 79 -81 196t81 196q51 52 126 73q-35 47 -49 74.5t-14 54.5q0 60 42 102t102 42q59 0 101.5 -42t42.5 -102q0 -61 -41 -102q-42 -44 -114 -44q-16 0 -24 -1l262 -335q15 43 15 84q0 86 -52 153l20 15
q57 -75 57 -168q0 -54 -22 -107zM205 587l29 -36q20 3 42 3q63 0 96.5 35.5t33.5 85.5q0 49 -35 84t-84 35t-84 -35t-35 -84q0 -35 37 -88zM276 24q74 0 135 39.5t92 103.5l-280 357q-86 -18 -142.5 -87.5t-56.5 -159.5q0 -104 74 -178.5t178 -74.5z" />
    <glyph glyph-name="quotesingle" unicode="'" horiz-adv-x="230" 
d="M10 684v116h27v-116h-27z" />
    <glyph glyph-name="parenleft" unicode="(" horiz-adv-x="523" 
d="M221 1q-34 0 -72 29q-40 31 -71 79q-36 54 -56 125q-22 76 -22 168t22 168q19 69 55 125q32 50 70.5 78.5t73.5 28.5v-27q-25 0 -58 -23t-64 -71q-72 -112 -72 -279q0 -166 73 -279q29 -46 62.5 -70.5t58.5 -24.5v-27z" />
    <glyph glyph-name="parenright" unicode=")" horiz-adv-x="533" 
d="M68 1v27q25 0 58.5 24.5t62.5 70.5q74 115 74 279q0 166 -73 279q-31 48 -64 71t-58 23v27q35 0 73.5 -28.5t70.5 -78.5q38 -59 56 -125q21 -73 21 -168t-21 -168q-19 -69 -57 -125q-32 -50 -70 -79t-73 -29z" />
    <glyph glyph-name="asterisk" unicode="*" horiz-adv-x="578" 
d="M207 586h-149v26h143l-143 185h32l128 -163v163h25v-162l128 162h31l-142 -185h142v-26h-147l147 -191h-31l-128 164v-164h-25v164l-128 -164h-32z" />
    <glyph glyph-name="plus" unicode="+" horiz-adv-x="637" 
d="M442 407v-26h-159v-192h-25v192h-160v26h160v184h25v-184h159z" />
    <glyph glyph-name="comma" unicode="," horiz-adv-x="488" 
d="M133 -69v138h27v-138h-27z" />
    <glyph glyph-name="hyphen" unicode="-" horiz-adv-x="442" 
d="M69 315v27h168v-27h-168z" />
    <glyph glyph-name="period" unicode="." horiz-adv-x="476" 
d="M108 38q0 37 38 37t38 -37q0 -38 -38 -38t-38 38z" />
    <glyph glyph-name="slash" unicode="/" horiz-adv-x="878" 
d="M769 803l-626 -803h-33l626 803h33z" />
    <glyph glyph-name="zero" unicode="0" 
d="M455 771q94 -48 146.5 -150.5t52.5 -218.5q0 -165 -95 -283q-97 -119 -232 -119q-66 0 -126 31.5t-106 87.5q-95 118 -95 283q0 113 51.5 216.5t147.5 152.5q61 32 128 32t128 -32zM327 27q125 0 213 110t88 265t-88 264.5t-213 109.5t-213 -109.5t-88 -264.5t88 -265
t213 -110z" />
    <glyph glyph-name="one" unicode="1" horiz-adv-x="613" 
d="M307 803h27v-803h-27v764l-269 -272h-38z" />
    <glyph glyph-name="two" unicode="2" 
d="M573 27v-27h-573v27l507 532q27 32 27 82q0 56 -40 95.5t-96 39.5h-285v27h290q65 -2 111 -49t46 -113q0 -63 -35 -101l-489 -513h537z" />
    <glyph glyph-name="three" unicode="3" 
d="M514 432q70 -75 70 -180q0 -103 -70 -178q-71 -74 -170 -74h-344v27h343q89 0 152 66t63 159q0 90 -59 156.5t-143 71.5h-252l-1 27h240q81 0 123 27q48 32 48 107q0 65 -44.5 100t-126.5 35h-343v27h344q96 0 147 -45q50 -42 50 -117q0 -90 -60 -129q-24 -15 -51 -22
q50 -21 84 -58z" />
    <glyph glyph-name="four" unicode="4" 
d="M656 438v-26h-232v-412h-27v412h-397v26l397 365h27v-365h232zM38 438h359v326z" />
    <glyph glyph-name="five" unicode="5" 
d="M341 505q104 0 178 -74t74 -178q0 -108 -64 -178q-66 -73 -168 -75h-361v27h359q91 0 149.5 64t58.5 162q0 94 -66 160t-160 66h-341v324h448v-27h-421v-271h314z" />
    <glyph glyph-name="six" unicode="6" 
d="M300 776q-113 0 -193 -80.5t-81 -193.5v-78q22 50 62 89q88 88 212 88q125 0 213 -88q87 -87 87 -212q0 -119 -87 -209.5t-213 -90.5q-89 0 -161 48.5t-113 129.5q-9 21 -13.5 39t-7.5 32t-4 43t-1 48.5t0.5 74.5t0.5 97q0 47 24 104.5t63 96.5q88 88 212 88
q95 0 174 -56q76 -54 109 -145h-28q-29 80 -98.5 127.5t-156.5 47.5zM300 575q-113 0 -193 -80.5t-80 -193.5t80 -193.5t193 -80.5t193.5 80.5t80.5 193.5t-80.5 193.5t-193.5 80.5z" />
    <glyph glyph-name="seven" unicode="7" 
d="M0 776v27h658l-626 -803h-32l605 776h-605z" />
    <glyph glyph-name="eight" unicode="8" 
d="M426 490q70 -30 112 -94.5t42 -143.5q0 -99 -68 -175.5t-172 -76.5h-100q-98 0 -169 75t-71 177q0 76 41 140t113 98q-26 6 -50 22q-60 39 -60 129q0 79 55 120.5t141 41.5h100q81 0 138.5 -41.5t57.5 -120.5q0 -90 -60 -129q-24 -16 -50 -22zM241 507h98q171 0 171 134
q0 65 -44.5 100t-126.5 35h-98q-82 0 -126.5 -35t-44.5 -100q0 -74 44.5 -103t126.5 -31zM339 27q88 0 151 66t63 159q0 90 -59 156.5t-143 71.5h-122q-84 -5 -143 -71.5t-59 -156.5q0 -93 63 -159t154 -66h95z" />
    <glyph glyph-name="nine" unicode="9" 
d="M300 2q-96 0 -174 55q-74 53 -108 145h27q29 -80 98.5 -127t156.5 -47q113 0 193.5 80.5t80.5 193.5v78q-23 -51 -62 -90q-87 -87 -212 -87t-212 87q-88 88 -88 212q0 125 88 213q87 87 212 87t212 -87q34 -34 62 -90q17 -44 22 -76.5t5 -101.5q0 -16 -0.5 -67.5
t-0.5 -89.5q0 -47 -24.5 -104t-63.5 -96q-88 -88 -212 -88zM574 502q0 113 -80.5 193.5t-193.5 80.5t-193.5 -80.5t-80.5 -193.5t80.5 -193t193.5 -80t193.5 80t80.5 193z" />
    <glyph glyph-name="colon" unicode=":" horiz-adv-x="476" 
d="M108 38q0 37 38 37t38 -37q0 -38 -38 -38t-38 38zM108 208q0 37 38 37t38 -37q0 -38 -38 -38t-38 38z" />
    <glyph glyph-name="semicolon" unicode=";" horiz-adv-x="378" 
d="M108 93q0 37 38 37t38 -37q0 -38 -38 -38t-38 38zM133 -173v137h26v-137h-26z" />
    <glyph glyph-name="less" unicode="&#x3c;" horiz-adv-x="478" 
d="M17 408l323 201l12 -19l-294 -182l294 -182l-12 -18z" />
    <glyph glyph-name="equal" unicode="=" horiz-adv-x="442" 
d="M69 296v26h168v-26h-168zM69 390v27h168v-27h-168z" />
    <glyph glyph-name="greater" unicode="&#x3e;" horiz-adv-x="515" 
d="M414 406l-323 -201l-12 19l294 182l-294 182l12 18z" />
    <glyph glyph-name="question" unicode="?" horiz-adv-x="600" 
d="M98 38q0 37 38 37q37 0 37 -37q0 -38 -37 -38q-38 0 -38 38zM321 726q84 -76 84 -186q0 -109 -84 -185q-74 -66 -175 -75v-111h-25v136q106 0 182 69t76 166t-76 166q-77 69 -182 69v27q117 0 200 -76z" />
    <glyph glyph-name="at" unicode="@" horiz-adv-x="1023" 
d="M459 773q-178 0 -304 -126t-126 -304q0 -97 41.5 -184t116.5 -149q117 -97 272 -97q113 0 213 57l13 -23q-106 -60 -226 -60q-163 0 -289 103q-79 65 -123 157.5t-44 195.5q0 94 36 178q34 81 97 144.5t145 98.5t178 35q190 0 323 -133q64 -64 99 -148t35 -175
q0 -100 -55.5 -207t-131.5 -160v238q-22 -50 -63 -91q-90 -90 -217 -90t-217 90t-90 217q0 126 90 216t217 90q124 0 215 -90.5t91 -217.5v-307q63 61 98.5 143.5t35.5 168.5q0 178 -126 304t-304 126zM729 338q-1 117 -82.5 199t-197.5 82t-198 -82t-82 -197
q0 -116 82.5 -198t197.5 -82q116 0 197.5 81.5t82.5 196.5z" />
    <glyph glyph-name="A" unicode="A" horiz-adv-x="818" 
d="M643 0l-192 445h-283l-191 -445h-26l346 803h25l346 -803h-25zM179 469h261l-130 304z" />
    <glyph glyph-name="B" unicode="B" 
d="M584 252q0 -102 -71 -178q-71 -74 -169 -74h-344v803h344q95 0 146 -45q50 -42 50 -117q0 -91 -60 -130q-24 -16 -50 -22q48 -20 83 -58q71 -76 71 -179zM514 641q0 65 -44.5 100t-126.5 35h-317v-270h317q81 0 123 27q48 31 48 108zM557 252q0 90 -59 156.5t-143 71.5
h-329v-453h317q88 0 151 66t63 159z" />
    <glyph glyph-name="C" unicode="C" horiz-adv-x="736" 
d="M0 402q0 164 99 282q46 55 108.5 87t132.5 32q80 0 156 -43t118 -119h-33q-45 64 -108 99.5t-133 35.5q-130 0 -221.5 -109.5t-91.5 -264.5t91.5 -265t221.5 -110q67 0 129 33.5t107 94.5h30q-44 -72 -117 -113.5t-149 -41.5q-69 0 -131.5 31.5t-109.5 87.5
q-101 119 -99 283z" />
    <glyph glyph-name="D" unicode="D" horiz-adv-x="818" 
d="M515 686q55 -55 86.5 -130t31.5 -155q0 -79 -30.5 -153t-87.5 -131q-108 -108 -272 -117v-1q-233 1 -244 1v803h244q157 -5 272 -117zM231 26q155 0 265 110t110 265t-110 265t-265 110h-208l3 -749q9 0 205 -1z" />
    <glyph glyph-name="E" unicode="E" horiz-adv-x="687" 
d="M541 27v-27h-541v803h541v-27h-514v-270h514v-26h-514v-453h514z" />
    <glyph glyph-name="F" unicode="F" horiz-adv-x="664" 
d="M27 480v-480h-27v803h541v-27h-514v-270h514v-26h-514z" />
    <glyph glyph-name="G" unicode="G" horiz-adv-x="869" 
d="M678 403q3 -165 -97 -284q-46 -55 -108.5 -87t-132.5 -32q-69 0 -131.5 31.5t-109.5 87.5q-99 118 -99 283q0 164 99 282q46 55 108.5 87t132.5 32q69 0 131.5 -31.5t109.5 -87.5q30 -37 48 -71h-31q-44 75 -111.5 119t-146.5 44q-130 0 -221.5 -109.5t-91.5 -264.5
t91.5 -265t221.5 -110q123 0 214 102t99 248h-207v26h232z" />
    <glyph glyph-name="H" unicode="H" 
d="M515 803h26v-803h-26v480h-488v-480h-27v803h27v-297h488v297z" />
    <glyph glyph-name="I" unicode="I" horiz-adv-x="320" 
d="M76 803v-803h-27v803h27z" />
    <glyph glyph-name="J" unicode="J" horiz-adv-x="613" 
d="M466 803v-562q0 -100 -68 -170q-68 -71 -165 -71q-96 0 -164 71q-63 65 -68 156v80h27v-65q0 -89 60 -152t145 -63t145.5 63t60.5 152v561h27z" />
    <glyph glyph-name="K" unicode="K" horiz-adv-x="664" 
d="M31 484l517 -484h-38l-483 452v-452h-27v803h27v-290l434 290h48z" />
    <glyph glyph-name="L" unicode="L" 
d="M609 27v-27h-609v803h27v-776h582z" />
    <glyph glyph-name="M" unicode="M" horiz-adv-x="869" 
d="M682 803h29v-803h-27v740l-315 -740h-29l-313 735v-735h-27v803h27l327 -769z" />
    <glyph glyph-name="N" unicode="N" horiz-adv-x="736" 
d="M520 803h27v-803h-32l-488 763v-763h-27v803h32l488 -762v762z" />
    <glyph glyph-name="O" unicode="O" horiz-adv-x="818" 
d="M340 0q-69 0 -131.5 31.5t-109.5 87.5q-99 118 -99 283q0 164 99 282q46 55 108.5 87t132.5 32q69 0 131.5 -31.5t109.5 -87.5q99 -118 99 -282q0 -165 -99 -283q-46 -55 -108.5 -87t-132.5 -32zM340 27q130 0 221.5 110t91.5 265t-91.5 264.5t-221.5 109.5
t-221.5 -109.5t-91.5 -264.5t91.5 -265t221.5 -110z" />
    <glyph glyph-name="P" unicode="P" horiz-adv-x="664" 
d="M540 641q0 -91 -60 -130q-35 -31 -125 -31h-329v-480h-26v803h344q95 0 146 -45q50 -42 50 -117zM26 506h317q81 0 123 27q48 31 48 108q0 65 -44.5 100t-126.5 35h-317v-270z" />
    <glyph glyph-name="Q" unicode="Q" horiz-adv-x="869" 
d="M340 0q-69 0 -131.5 31.5t-109.5 87.5q-99 118 -99 283q0 164 99 282q46 55 108.5 87t132.5 32q69 0 131.5 -31.5t109.5 -87.5q99 -118 99 -282t-97 -281l87 -121h-33l-72 101q-42 -46 -101.5 -73.5t-123.5 -27.5zM340 27q120 0 210 96l-118 165h33l102 -144
q86 109 86 258q0 155 -91.5 264.5t-221.5 109.5t-221.5 -109.5t-91.5 -264.5t91.5 -265t221.5 -110z" />
    <glyph glyph-name="R" unicode="R" 
d="M350 480l205 -480h-29l-205 480h-294v-480h-27v803h344q96 0 147 -45q50 -42 50 -117q0 -91 -60 -130q-35 -31 -131 -31zM27 506h316q79 0 123 28q48 32 48 107q0 65 -44.5 100t-126.5 35h-316v-270z" />
    <glyph glyph-name="S" unicode="S" horiz-adv-x="767" 
d="M162 505h179q104 0 178 -74t74 -178q0 -108 -64 -178q-66 -73 -168 -75h-361v27h359q91 0 149.5 64t58.5 162q0 94 -66 160t-160 66h-185q-65 2 -110.5 49.5t-45.5 112.5q0 66 46 113t111 49h291v-27h-286q-56 0 -95.5 -39.5t-39.5 -95.5t39.5 -96t95.5 -40z" />
    <glyph glyph-name="T" unicode="T" horiz-adv-x="869" 
d="M-49 803h751v-27h-362v-776h-27v776h-362v27z" />
    <glyph glyph-name="U" unicode="U" 
d="M293 27q110 0 188 63t78 152v561h27v-562q0 -101 -87 -171q-86 -70 -206 -70q-119 0 -205 70q-80 64 -86 157h-1v576h27v-561q0 -89 77.5 -152t187.5 -63z" />
    <glyph glyph-name="V" unicode="V" horiz-adv-x="859" 
d="M668 803l-346 -803h-25l-346 803h26l333 -773l333 773h25z" />
    <glyph glyph-name="W" unicode="W" horiz-adv-x="1002" 
d="M942 803l-346 -803h-26l-100 231l-99 -231h-25l-346 803h25l333 -773l99 231l-151 353h25l139 -323l140 323h26l-153 -353l100 -231l333 773h26z" />
    <glyph glyph-name="X" unicode="X" horiz-adv-x="818" 
d="M695 803l-330 -402l330 -401h-34l-313 381l-314 -381h-34l331 401l-331 402h34l314 -381l313 381h34z" />
    <glyph glyph-name="Y" unicode="Y" horiz-adv-x="818" 
d="M695 803l-334 -406v-397h-27v397l-334 406h34l314 -381l313 381h34z" />
    <glyph glyph-name="Z" unicode="Z" horiz-adv-x="920" 
d="M36 27h715v-27h-751v27l715 749h-715v27h751v-27z" />
    <glyph glyph-name="bracketleft" unicode="[" horiz-adv-x="465" 
d="M283 760h-238v-736h238v-25h-265v786h265v-25z" />
    <glyph glyph-name="backslash" unicode="\" horiz-adv-x="759" 
d="M626 0l-626 803h32l626 -803h-32z" />
    <glyph glyph-name="bracketright" unicode="]" horiz-adv-x="516" 
d="M91 23h238v736h-238v25h265v-786h-265v25z" />
    <glyph glyph-name="asciicircum" unicode="^" horiz-adv-x="393" 
d="M210 851l106 -137h-32l-90 116l-93 -119h-33l109 140h33z" />
    <glyph glyph-name="underscore" unicode="_" horiz-adv-x="587" 
d="M0 0v27h416v-27h-416z" />
    <glyph glyph-name="grave" unicode="`" horiz-adv-x="391" 
d="M207 716l-106 137h32l106 -137h-32z" />
    <glyph glyph-name="a" unicode="a" horiz-adv-x="797" 
d="M587 0v181q-22 -50 -63 -91q-90 -90 -217 -90t-217 90t-90 217q0 126 90 216t217 90t217 -90q41 -41 63 -91v181h26v-613h-26zM587 305q-1 118 -82.5 200t-197.5 82q-115 0 -197.5 -82.5t-82.5 -197.5t82.5 -197.5t197.5 -82.5q116 0 197.5 81.5t82.5 196.5z" />
    <glyph glyph-name="b" unicode="b" horiz-adv-x="767" 
d="M524 523q89 -89 89 -216q0 -128 -89 -217q-90 -90 -217 -90t-217 90q-41 41 -63 91v-181h-27v803h27v-371q22 50 63 91q90 90 217 90t217 -90zM307 27q115 0 197.5 82.5t82.5 197.5t-82.5 197.5t-197.5 82.5t-197.5 -82.5t-82.5 -197.5t82.5 -197.5t197.5 -82.5z" />
    <glyph glyph-name="c" unicode="c" horiz-adv-x="736" 
d="M307 0q-127 0 -217 90t-90 217q0 126 90 216t217 90q74 0 136 -31q61 -31 116 -101h-32q-40 51 -97.5 78.5t-122.5 27.5q-115 0 -197.5 -82.5t-82.5 -197.5t82.5 -197.5t197.5 -82.5q75 0 140 36t103 99h29q-50 -81 -119 -121q-70 -41 -153 -41z" />
    <glyph glyph-name="d" unicode="d" horiz-adv-x="818" 
d="M588 803h26v-803h-26v184q-23 -52 -64 -94q-90 -90 -217 -90t-217 90t-90 217q0 126 90 216t217 90t217 -90q42 -42 64 -93v373zM307 27q115 0 197.5 82.5t82.5 197.5t-82.5 197.5t-197.5 82.5t-197.5 -82.5t-82.5 -197.5t82.5 -197.5t197.5 -82.5z" />
    <glyph glyph-name="e" unicode="e" horiz-adv-x="767" 
d="M612 328h-584q-10 -121 74 -211t205 -90q77 0 144.5 40t104.5 107h28q-41 -75 -118 -124.5t-159 -49.5q-127 0 -217 90t-90 217q0 126 90 216t217 90q121 0 209 -82q86 -80 96 -203zM307 587q-103 0 -181 -66.5t-95 -165.5h552q-17 99 -95.5 165.5t-180.5 66.5z" />
    <glyph glyph-name="f" unicode="f" horiz-adv-x="664" 
d="M307 819q56 0 103 -16t77 -38.5t54 -53.5t35 -53t19 -44h-28q-30 82 -101 130.5t-159 48.5q-115 0 -197.5 -82.5t-82.5 -197.5v-129h384v-27h-384v-357h-27v525q5 119 90 204q90 90 217 90z" />
    <glyph glyph-name="g" unicode="g" horiz-adv-x="797" 
d="M613 613v-523q-5 -121 -89 -205q-90 -90 -217 -90q-98 0 -178 57q-78 55 -111 148h29q30 -82 101 -130t159 -48q115 0 197.5 82t82.5 198v80q-23 -52 -63 -92q-90 -90 -217 -90t-217 90t-90 217q0 126 90 216t217 90t217 -90q41 -41 63 -91v181h26zM307 27
q115 0 197.5 82.5t82.5 197.5t-82.5 197.5t-197.5 82.5t-197.5 -82.5t-82.5 -197.5t82.5 -197.5t197.5 -82.5z" />
    <glyph glyph-name="h" unicode="h" 
d="M523 383v-383h-25v382q0 83 -70.5 142t-170.5 59q-94 0 -159.5 -55t-70.5 -136v-392h-27v803h27v-319q19 36 47 59q75 66 183 66t187 -66q79 -67 79 -160z" />
    <glyph glyph-name="i" unicode="i" horiz-adv-x="345" 
d="M27 613v-613h-27v613h27zM-13 738q0 27 27 27q28 0 28 -27t-28 -27q-27 0 -27 27z" />
    <glyph glyph-name="j" unicode="j" horiz-adv-x="767" 
d="M260 -179q116 0 198 82.5t82 197.5v512h25v-524q-5 -121 -89 -205q-89 -89 -216 -89q-99 0 -178 56q-78 55 -111 148h29q30 -82 101 -130t159 -48z" />
    <glyph glyph-name="k" unicode="k" horiz-adv-x="756" 
d="M122 375l449 -375h-33l-436 359l-75 -62v-297h-27v803h27v-473l352 283h33z" />
    <glyph glyph-name="l" unicode="l" horiz-adv-x="306" 
d="M27 803v-803h-27v803h27z" />
    <glyph glyph-name="m" unicode="m" horiz-adv-x="1176" 
d="M498 0v382q0 83 -70.5 142t-170.5 59q-94 0 -162 -61.5t-68 -155.5v-366h-27v613h27v-129q19 36 47 59q75 66 183 66t187 -66q46 -39 66 -91q17 51 61 91q75 66 183 66t187 -66q79 -67 79 -160v-383h-26v382q0 83 -70 142t-170 59q-95 0 -161.5 -57t-69.5 -143v-383h-25z
" />
    <glyph glyph-name="n" unicode="n" 
d="M523 383v-383h-25v382q0 83 -70.5 142t-170.5 59q-94 0 -159.5 -55t-70.5 -136v-392h-27v613h27v-129q19 36 47 59q75 66 183 66t187 -66q79 -67 79 -160z" />
    <glyph glyph-name="o" unicode="o" horiz-adv-x="736" 
d="M307 0q-127 0 -217 90t-90 217q0 126 90 216t217 90t217 -90q89 -89 89 -216q0 -128 -89 -217q-90 -90 -217 -90zM587 307q0 115 -82.5 197.5t-197.5 82.5t-197.5 -82.5t-82.5 -197.5t82.5 -197.5t197.5 -82.5t197.5 82.5t82.5 197.5z" />
    <glyph glyph-name="p" unicode="p" horiz-adv-x="746" 
d="M524 523q89 -89 89 -216q0 -128 -89 -217q-90 -90 -217 -90t-217 90q-41 41 -63 91v-386h-27v818h27v-181q22 50 63 91q90 90 217 90t217 -90zM307 27q115 0 197.5 82.5t82.5 197.5t-82.5 197.5t-197.5 82.5t-197.5 -82.5t-82.5 -197.5t82.5 -197.5t197.5 -82.5z" />
    <glyph glyph-name="q" unicode="q" horiz-adv-x="767" 
d="M0 307q0 127 90 217q89 89 217 89t217 -89q42 -42 65 -97v186h27v-818h-27v391q-22 -53 -65 -96q-90 -90 -217 -90t-217 90t-90 217zM587 307q0 115 -82.5 197.5t-197.5 82.5t-197.5 -82.5t-82.5 -197.5t82.5 -197.5t197.5 -82.5t197.5 82.5t82.5 197.5z" />
    <glyph glyph-name="r" unicode="r" horiz-adv-x="695" 
d="M307 613q34 0 68 -7.5t77.5 -26.5t82 -63t61.5 -107h-29q-30 82 -101 130t-159 48q-115 0 -197.5 -82.5t-82.5 -197.5v-307h-27v613h27v-181q23 52 63 92q89 89 217 89z" />
    <glyph glyph-name="s" unicode="s" horiz-adv-x="664" 
d="M515 189q0 -75 -51.5 -129.5t-126.5 -59.5h-337v27h326q68 0 115 47.5t47 114.5q0 68 -47.5 115.5t-114.5 48.5h-196q-52 1 -89 39t-37 91q0 54 38 92t92 38h279v-26h-279q-43 0 -73 -30.5t-30 -73.5t30 -73.5t73 -30.5h203q74 -5 126 -59.5t52 -130.5z" />
    <glyph glyph-name="t" unicode="t" horiz-adv-x="672" 
d="M326 27q89 0 160 48t101 130h27q-33 -94 -110 -148q-80 -57 -178 -57q-127 0 -217 90q-84 84 -89 205v508h27v-176h384v-27h-384v-293q0 -116 82 -198t197 -82z" />
    <glyph glyph-name="u" unicode="u" horiz-adv-x="777" 
d="M306 0q-98 0 -178 57q-114 83 -128 238v318h27v-285q0 -127 74 -211t206 -90q126 3 201.5 88t77.5 213v285h27v-296q-6 -133 -77 -213q-83 -99 -230 -104z" />
    <glyph glyph-name="v" unicode="v" horiz-adv-x="695" 
d="M534 613l-263 -613h-27l-264 613h26l252 -584l252 584h24z" />
    <glyph glyph-name="w" unicode="w" horiz-adv-x="1023" 
d="M852 613h26l-264 -613h-26l-149 345l-149 -345h-26l-264 613h25l252 -584l149 346h26l149 -346z" />
    <glyph glyph-name="x" unicode="x" 
d="M540 613l-253 -307l253 -306h-36l-234 285l-234 -285h-36l252 306l-252 307h34l236 -286l235 286h35z" />
    <glyph glyph-name="y" unicode="y" horiz-adv-x="756" 
d="M306 0q-136 0 -230 105q-76 88 -76 190v318h27l-1 -307q0 -111 82 -195t199 -84q82 0 158 50t101 126q10 30 15 132.5t5 190.5v87h26v-523q-5 -111 -76 -191q-41 -49 -102 -76.5t-128 -27.5q-136 0 -230 105q-40 46 -59 100h29q31 -79 102.5 -128.5t158.5 -49.5
q81 0 154.5 49.5t104.5 126.5q3 5 7.5 16t10.5 58t2 109q-13 -35 -50 -77q-40 -49 -101.5 -76.5t-128.5 -27.5z" />
    <glyph glyph-name="z" unicode="z" 
d="M540 613l-482 -586h482v-27h-540l483 587h-483v26h540z" />
    <glyph glyph-name="braceleft" unicode="{" horiz-adv-x="332" 
d="M206 787q-37 0 -56 -19t-22.5 -65t1.5 -90q7 -50 1 -105t-33 -84q-11 -12 -28 -20q17 -8 28 -20q27 -29 33 -84t-1 -105q-5 -44 -1.5 -90t22.5 -65q20 -20 56 -20v-25q-48 0 -74 28q-23 25 -28 74.5t1 98.5q5 47 0.5 97t-26.5 73q-24 25 -73 25v25q49 0 73 26
q22 23 26.5 73t-0.5 97q-6 49 -1 98.5t28 74.5q25 27 74 27v-25z" />
    <glyph glyph-name="bar" unicode="|" horiz-adv-x="307" 
d="M62 0v800h27v-800h-27z" />
    <glyph glyph-name="braceright" unicode="}" horiz-adv-x="404" 
d="M61 787v25q49 0 74 -27q23 -25 28 -74.5t-1 -98.5q-5 -47 -0.5 -97t26.5 -73q24 -26 73 -26v-25q-49 0 -73 -25q-22 -23 -26.5 -73t0.5 -97q6 -49 1 -98.5t-28 -74.5q-26 -28 -74 -28v25q36 0 56 20q28 30 20 155q-6 50 -0.5 105t32.5 84q13 12 29 20q-16 8 -29 20
q-27 29 -32.5 84t0.5 105q8 125 -20 155q-19 19 -56 19z" />
    <glyph glyph-name="asciitilde" unicode="~" horiz-adv-x="407" 
d="M129 327q-19 -4 -37 -42l-19 9q23 46 51 54q25 6 65.5 -26t59.5 -27q19 4 37 44l19 -8q-23 -50 -51 -57q-24 -6 -64.5 26t-60.5 27z" />
    <glyph glyph-name="exclamdown" unicode="&#xa1;" horiz-adv-x="390" 
d="M186 763q0 -37 -38 -37q-37 0 -37 37q0 38 37 38q38 0 38 -38zM162 622v-624h-26v624h26z" />
    <glyph glyph-name="cent" unicode="&#xa2;" horiz-adv-x="736" 
d="M307 0q-127 0 -217 90t-90 217q0 126 90 216t217 90q74 0 136 -31q61 -31 116 -101h-32q-37 48 -90.5 75t-114.5 30v-559q70 4 131 39.5t97 95.5h29q-50 -81 -119 -121q-70 -41 -153 -41zM27 307q0 -112 78 -193.5t190 -86.5v560q-112 -5 -190 -86.5t-78 -193.5z" />
    <glyph glyph-name="sterling" unicode="&#xa3;" horiz-adv-x="704" 
d="M307 819q56 0 103 -16t77 -38.5t54 -53.5t35 -53t19 -44h-28q-30 82 -101 130.5t-159 48.5q-115 0 -197.5 -82.5t-82.5 -197.5v-129h279v-27h-279v-330h567v-27h-594v525q5 119 90 204q90 90 217 90z" />
    <glyph glyph-name="currency" unicode="&#xa4;" horiz-adv-x="569" 
d="M394 393q0 -74 -49 -128l59 -59l-17 -17l-59 59q-53 -47 -126 -47q-69 0 -122 43l-56 -55l-18 17l55 56q-52 55 -52 131q0 71 47 126l-50 50l18 18l50 -50q56 49 128 49q76 0 131 -52l54 53l17 -18l-54 -54q44 -52 44 -122zM202 226q69 0 118 49t49 118q0 70 -49 119
t-118 49q-70 0 -119 -49t-49 -119q0 -69 49 -118t119 -49z" />
    <glyph glyph-name="yen" unicode="&#xa5;" horiz-adv-x="818" 
d="M144 369v27h190l-334 407h34l314 -381l313 381h34l-334 -407h191v-27h-191v-49h191v-27h-191v-293h-27v293h-190v27h190v49h-190z" />
    <glyph glyph-name="section" unicode="&#xa7;" horiz-adv-x="833" 
d="M367 794q-67 0 -114.5 -47t-47.5 -115t47.5 -115.5t114.5 -48.5h148q74 -5 126 -59.5t52 -130.5q0 -72 -47.5 -125.5t-117.5 -62.5q-15 -59 -62.5 -98t-109.5 -43h-273v27h262q67 0 114.5 47t47.5 115t-47.5 115.5t-114.5 47.5v1h-148q-74 5 -126 59.5t-52 130.5
q0 72 47.5 125t117.5 62q15 59 62.5 98.5t109.5 43.5h208v-27h-197zM356 442q-78 6 -133.5 68.5t-43.5 140.5q-57 -10 -95 -54.5t-38 -104.5q0 -68 47.5 -115.5t114.5 -48.5h148q81 -7 131.5 -67t45.5 -142q57 10 95 54.5t38 104.5q0 68 -47.5 115.5t-114.5 48.5h-148z" />
    <glyph glyph-name="dieresis" unicode="&#xa8;" horiz-adv-x="319" 
d="M173 751q0 27 27 27q28 0 28 -27t-28 -27q-27 0 -27 27zM61 751q0 27 27 27q28 0 28 -27t-28 -27q-27 0 -27 27z" />
    <glyph glyph-name="copyright" unicode="&#xa9;" horiz-adv-x="403" 
d="M164 484q-66 0 -112.5 47t-46.5 112q0 66 46.5 112.5t112.5 46.5q65 0 112 -46.5t47 -112.5q0 -65 -47 -112t-112 -47zM164 780q-57 0 -97 -40t-40 -97t40 -97t97 -40t97 40t40 97t-40 97t-97 40zM169 540q-43 0 -73 30t-30 73t30 73t73 30q45 0 76 -33l-16 -14
q-26 26 -60 26t-57.5 -24t-23.5 -58t23.5 -58t57.5 -24q36 0 60 26l16 -14q-31 -33 -76 -33z" />
    <glyph glyph-name="registered" unicode="&#xae;" horiz-adv-x="413" 
d="M162 795q65 0 112 -46.5t47 -112.5q0 -65 -47 -112t-112 -47q-66 0 -112.5 47t-46.5 112q0 66 46.5 112.5t112.5 46.5zM162 499q57 0 97 40t40 97t-40 97t-97 40t-97 -40t-40 -97t40 -97t97 -40zM240 689q0 -37 -35 -49l40 -101h-19l-39 98h-78v-95h-18v199h97
q22 0 37 -15t15 -37zM109 724v-70h79q14 0 24.5 10.5t10.5 24.5t-10.5 24.5t-24.5 10.5h-79z" />
    <glyph glyph-name="acute" unicode="&#xb4;" horiz-adv-x="346" 
d="M214 857l-109 -140h-33l109 140h33z" />
    <glyph glyph-name="mu" unicode="&#xb5;" horiz-adv-x="813" 
d="M612 613h27q-1 -321 -1 -613h-20v198q-32 -88 -109 -140t-177 -58q-91 1 -166.5 51.5t-114.5 134.5v-413h-26l1 840h27v-306q0 -113 81 -196.5t199 -83.5q114 1 195.5 82.5t83.5 197.5v306z" />
    <glyph glyph-name="paragraph" unicode="&#xb6;" horiz-adv-x="780" 
d="M206 803h438v-803h-26v480h-68v-480h-26v480h-329q-185 4 -185 161q0 79 55 119.5t141 42.5zM524 506v270h-317q-82 0 -126.5 -35t-44.5 -100q0 -74 44.5 -103.5t126.5 -31.5h317zM618 506v270h-68v-270h68z" />
    <glyph glyph-name="questiondown" unicode="&#xbf;" horiz-adv-x="408" 
d="M232 765q0 38 38 38t38 -38t-38 -38t-38 38zM84 77q-84 77 -84 186t84 185q74 66 175 75v111h26v-136q-107 0 -183 -69q-75 -68 -75 -166t75 -166q76 -69 183 -69v-27q-118 0 -201 76z" />
    <glyph glyph-name="Agrave" unicode="&#xc0;" horiz-adv-x="818" 
d="M643 0l-192 445h-283l-191 -445h-26l346 803h25l346 -803h-25zM179 469h261l-130 304zM342 857l-106 137h32l106 -137h-32z" />
    <glyph glyph-name="Aacute" unicode="&#xc1;" horiz-adv-x="818" 
d="M643 0l-192 445h-283l-191 -445h-26l346 803h25l346 -803h-25zM179 469h261l-130 304zM384 994l-109 -140h-33l109 140h33z" />
    <glyph glyph-name="Acircumflex" unicode="&#xc2;" horiz-adv-x="818" 
d="M643 0l-192 445h-283l-191 -445h-26l346 803h25l346 -803h-25zM179 469h261l-130 304zM326 994l106 -137h-32l-90 116l-93 -119h-33l109 140h33z" />
    <glyph glyph-name="Atilde" unicode="&#xc3;" horiz-adv-x="818" 
d="M643 0l-192 445h-283l-191 -445h-26l346 803h25l346 -803h-25zM179 469h261l-130 304zM263 921q-19 -4 -37 -42l-19 9q23 46 51 54q25 6 65.5 -26t59.5 -27q19 4 37 44l19 -8q-23 -50 -51 -57q-24 -6 -64.5 26t-60.5 27z" />
    <glyph glyph-name="Adieresis" unicode="&#xc4;" horiz-adv-x="818" 
d="M643 0l-192 445h-283l-191 -445h-26l346 803h25l346 -803h-25zM179 469h261l-130 304zM342 930q0 27 27 27q28 0 28 -27t-28 -27q-27 0 -27 27zM230 930q0 27 27 27q28 0 28 -27t-28 -27q-27 0 -27 27z" />
    <glyph glyph-name="Aring" unicode="&#xc5;" horiz-adv-x="818" 
d="M643 0l-192 445h-283l-191 -445h-26l346 803h25l346 -803h-25zM179 469h261l-130 304zM311 819q-28 0 -47.5 19.5t-19.5 47.5t19.5 48t47.5 20t48 -20t20 -48t-20 -47.5t-48 -19.5zM311 932q-19 0 -32.5 -13.5t-13.5 -32.5t13.5 -32.5t32.5 -13.5t32.5 13.5t13.5 32.5
t-13.5 32.5t-32.5 13.5z" />
    <glyph glyph-name="AE" unicode="&#xc6;" horiz-adv-x="1046" 
d="M887 776h-514v-270h514v-26h-514v-453h514v-27h-541v445h-129l-191 -445h-26l346 803h541v-27zM228 469h118v275z" />
    <glyph glyph-name="Ccedilla" unicode="&#xc7;" horiz-adv-x="736" 
d="M347 -40q35 -4 59 -30.5t24 -62.5q0 -39 -27.5 -66.5t-66.5 -27.5v21q30 0 51.5 21.5t21.5 51.5q0 31 -23 51.5t-61 21.5v60q-135 9 -226 119q-101 119 -99 283q0 164 99 282q46 55 108.5 87t132.5 32q80 0 156 -43t118 -119h-33q-45 64 -108 99.5t-133 35.5
q-130 0 -221.5 -109.5t-91.5 -264.5t91.5 -265t221.5 -110q67 0 129 33.5t107 94.5h30q-44 -70 -114.5 -111.5t-144.5 -43.5v-40z" />
    <glyph glyph-name="Egrave" unicode="&#xc8;" horiz-adv-x="687" 
d="M541 27v-27h-541v803h541v-27h-514v-270h514v-26h-514v-453h514zM280 857l-106 137h32l106 -137h-32z" />
    <glyph glyph-name="Eacute" unicode="&#xc9;" horiz-adv-x="687" 
d="M361 994l-109 -140h-33l109 140h33zM541 27v-27h-541v803h541v-27h-514v-270h514v-26h-514v-453h514z" />
    <glyph glyph-name="Ecircumflex" unicode="&#xca;" horiz-adv-x="687" 
d="M285 994l106 -137h-32l-90 116l-93 -119h-33l109 140h33zM541 27v-27h-541v803h541v-27h-514v-270h514v-26h-514v-453h514z" />
    <glyph glyph-name="Edieresis" unicode="&#xcb;" horiz-adv-x="687" 
d="M299 930q0 27 27 27q28 0 28 -27t-28 -27q-27 0 -27 27zM187 930q0 27 27 27q28 0 28 -27t-28 -27q-27 0 -27 27zM541 27v-27h-541v803h541v-27h-514v-270h514v-26h-514v-453h514z" />
    <glyph glyph-name="Igrave" unicode="&#xcc;" horiz-adv-x="320" 
d="M76 803v-803h-27v803h27zM100 857l-106 137h32l106 -137h-32z" />
    <glyph glyph-name="Iacute" unicode="&#xcd;" horiz-adv-x="320" 
d="M149 994l-109 -140h-33l109 140h33zM76 803v-803h-27v803h27z" />
    <glyph glyph-name="Icircumflex" unicode="&#xce;" horiz-adv-x="320" 
d="M77 994l106 -137h-32l-90 116l-93 -119h-33l109 140h33zM76 803v-803h-27v803h27z" />
    <glyph glyph-name="Idieresis" unicode="&#xcf;" horiz-adv-x="320" 
d="M95 930q0 27 27 27q28 0 28 -27t-28 -27q-27 0 -27 27zM-17 930q0 27 27 27q28 0 28 -27t-28 -27q-27 0 -27 27zM76 803v-803h-27v803h27z" />
    <glyph glyph-name="Ntilde" unicode="&#xd1;" horiz-adv-x="736" 
d="M520 803h27v-803h-32l-488 763v-763h-27v803h32l488 -762v762zM210 921q-19 -4 -37 -42l-19 9q22 46 51 54q25 6 65.5 -26t59.5 -27q19 4 37 44l19 -8q-23 -50 -51 -57q-24 -6 -64.5 26t-60.5 27z" />
    <glyph glyph-name="Ograve" unicode="&#xd2;" horiz-adv-x="818" 
d="M340 0q-69 0 -131.5 31.5t-109.5 87.5q-99 118 -99 283q0 164 99 282q46 55 108.5 87t132.5 32q69 0 131.5 -31.5t109.5 -87.5q99 -118 99 -282q0 -165 -99 -283q-46 -55 -108.5 -87t-132.5 -32zM340 27q130 0 221.5 110t91.5 265t-91.5 264.5t-221.5 109.5
t-221.5 -109.5t-91.5 -264.5t91.5 -265t221.5 -110zM367 857l-106 137h32l106 -137h-32z" />
    <glyph glyph-name="Oacute" unicode="&#xd3;" horiz-adv-x="818" 
d="M340 0q-69 0 -131.5 31.5t-109.5 87.5q-99 118 -99 283q0 164 99 282q46 55 108.5 87t132.5 32q69 0 131.5 -31.5t109.5 -87.5q99 -118 99 -282q0 -165 -99 -283q-46 -55 -108.5 -87t-132.5 -32zM340 27q130 0 221.5 110t91.5 265t-91.5 264.5t-221.5 109.5
t-221.5 -109.5t-91.5 -264.5t91.5 -265t221.5 -110zM430 994l-109 -140h-33l109 140h33z" />
    <glyph glyph-name="Ocircumflex" unicode="&#xd4;" horiz-adv-x="818" 
d="M340 0q-69 0 -131.5 31.5t-109.5 87.5q-99 118 -99 283q0 164 99 282q46 55 108.5 87t132.5 32q69 0 131.5 -31.5t109.5 -87.5q99 -118 99 -282q0 -165 -99 -283q-46 -55 -108.5 -87t-132.5 -32zM340 27q130 0 221.5 110t91.5 265t-91.5 264.5t-221.5 109.5
t-221.5 -109.5t-91.5 -264.5t91.5 -265t221.5 -110zM357 994l106 -137h-32l-90 116l-93 -119h-33l109 140h33z" />
    <glyph glyph-name="Otilde" unicode="&#xd5;" horiz-adv-x="818" 
d="M340 0q-69 0 -131.5 31.5t-109.5 87.5q-99 118 -99 283q0 164 99 282q46 55 108.5 87t132.5 32q69 0 131.5 -31.5t109.5 -87.5q99 -118 99 -282q0 -165 -99 -283q-46 -55 -108.5 -87t-132.5 -32zM340 27q130 0 221.5 110t91.5 265t-91.5 264.5t-221.5 109.5
t-221.5 -109.5t-91.5 -264.5t91.5 -265t221.5 -110zM283 921q-19 -4 -37 -42l-19 9q23 46 51 54q25 6 65.5 -26t59.5 -27q19 4 37 44l19 -8q-23 -50 -51 -57q-24 -6 -64.5 26t-60.5 27z" />
    <glyph glyph-name="Odieresis" unicode="&#xd6;" horiz-adv-x="818" 
d="M340 0q-69 0 -131.5 31.5t-109.5 87.5q-99 118 -99 283q0 164 99 282q46 55 108.5 87t132.5 32q69 0 131.5 -31.5t109.5 -87.5q99 -118 99 -282q0 -165 -99 -283q-46 -55 -108.5 -87t-132.5 -32zM340 27q130 0 221.5 110t91.5 265t-91.5 264.5t-221.5 109.5
t-221.5 -109.5t-91.5 -264.5t91.5 -265t221.5 -110zM363 930q0 27 27 27q28 0 28 -27t-28 -27q-27 0 -27 27zM251 930q0 27 27 27q28 0 28 -27t-28 -27q-27 0 -27 27z" />
    <glyph glyph-name="Oslash" unicode="&#xd8;" horiz-adv-x="818" 
d="M659 803l-86 -110q54 -72 80.5 -139t26.5 -152q0 -165 -99 -283q-46 -55 -108.5 -87t-132.5 -32q-64 0 -123.5 27t-103.5 76l-80 -103h-33l96 122q-96 118 -96 280q0 164 99 282q46 55 108.5 87t132.5 32q119 0 215 -91l71 91h33zM340 27q130 0 221.5 110t91.5 265
q0 160 -97 270l-427 -548q91 -97 211 -97zM27 402q0 -149 86 -258l426 547q-87 85 -199 85q-130 0 -221.5 -109.5t-91.5 -264.5z" />
    <glyph glyph-name="Ugrave" unicode="&#xd9;" 
d="M293 27q110 0 188 63t78 152v561h27v-562q0 -101 -87 -171q-86 -70 -206 -70q-119 0 -205 70q-80 64 -86 157h-1v576h27v-561q0 -89 77.5 -152t187.5 -63zM307 857l-106 137h32l106 -137h-32z" />
    <glyph glyph-name="Uacute" unicode="&#xda;" 
d="M293 27q110 0 188 63t78 152v561h27v-562q0 -101 -87 -171q-86 -70 -206 -70q-119 0 -205 70q-80 64 -86 157h-1v576h27v-561q0 -89 77.5 -152t187.5 -63zM370 994l-109 -140h-33l109 140h33z" />
    <glyph glyph-name="Ucircumflex" unicode="&#xdb;" 
d="M293 27q110 0 188 63t78 152v561h27v-562q0 -101 -87 -171q-86 -70 -206 -70q-119 0 -205 70q-80 64 -86 157h-1v576h27v-561q0 -89 77.5 -152t187.5 -63zM311 994l106 -137h-32l-90 116l-93 -119h-33l109 140h33z" />
    <glyph glyph-name="Udieresis" unicode="&#xdc;" 
d="M293 27q110 0 188 63t78 152v561h27v-562q0 -101 -87 -171q-86 -70 -206 -70q-119 0 -205 70q-80 64 -86 157h-1v576h27v-561q0 -89 77.5 -152t187.5 -63zM310 930q0 27 27 27q28 0 28 -27t-28 -27q-27 0 -27 27zM198 930q0 27 27 27q28 0 28 -27t-28 -27q-27 0 -27 27z
" />
    <glyph glyph-name="Yacute" unicode="&#xdd;" horiz-adv-x="818" 
d="M695 803l-334 -406v-397h-27v397l-334 406h34l314 -381l313 381h34zM424 994l-109 -140h-33l109 140h33z" />
    <glyph glyph-name="germandbls" unicode="&#xdf;" horiz-adv-x="746" 
d="M522 431q71 -76 71 -179q0 -102 -71 -178q-71 -74 -169 -74h-168v27h167q88 0 151 66t63 159q0 90 -59 156.5t-143 71.5h-93v26h81q81 0 123 27q48 31 48 108q0 65 -44.5 100t-126.5 35h-146q-82 0 -126.5 -35t-44.5 -100v-641h-26v653q5 66 50 105q51 45 146 45h148
q95 0 146 -45q50 -42 50 -117q0 -91 -60 -130q-24 -16 -50 -22q48 -20 83 -58z" />
    <glyph glyph-name="agrave" unicode="&#xe0;" horiz-adv-x="797" 
d="M332 716l-106 137h32l106 -137h-32zM587 0v181q-22 -50 -63 -91q-90 -90 -217 -90t-217 90t-90 217q0 126 90 216t217 90t217 -90q41 -41 63 -91v181h26v-613h-26zM587 305q-1 118 -82.5 200t-197.5 82q-115 0 -197.5 -82.5t-82.5 -197.5t82.5 -197.5t197.5 -82.5
q116 0 197.5 81.5t82.5 196.5z" />
    <glyph glyph-name="aacute" unicode="&#xe1;" horiz-adv-x="797" 
d="M389 857l-109 -140h-33l109 140h33zM587 0v181q-22 -50 -63 -91q-90 -90 -217 -90t-217 90t-90 217q0 126 90 216t217 90t217 -90q41 -41 63 -91v181h26v-613h-26zM587 305q-1 118 -82.5 200t-197.5 82q-115 0 -197.5 -82.5t-82.5 -197.5t82.5 -197.5t197.5 -82.5
q116 0 197.5 81.5t82.5 196.5z" />
    <glyph glyph-name="acircumflex" unicode="&#xe2;" horiz-adv-x="797" 
d="M324 851l106 -137h-32l-90 116l-93 -119h-33l109 140h33zM587 0v181q-22 -50 -63 -91q-90 -90 -217 -90t-217 90t-90 217q0 126 90 216t217 90t217 -90q41 -41 63 -91v181h26v-613h-26zM587 305q-1 118 -82.5 200t-197.5 82q-115 0 -197.5 -82.5t-82.5 -197.5
t82.5 -197.5t197.5 -82.5q116 0 197.5 81.5t82.5 196.5z" />
    <glyph glyph-name="atilde" unicode="&#xe3;" horiz-adv-x="797" 
d="M248 770q-19 -4 -37 -42l-19 9q22 47 51 54q25 6 65.5 -26t59.5 -27q19 4 37 44l19 -8q-23 -50 -51 -57q-24 -6 -64.5 26t-60.5 27zM587 0v181q-22 -50 -63 -91q-90 -90 -217 -90t-217 90t-90 217q0 126 90 216t217 90t217 -90q41 -41 63 -91v181h26v-613h-26zM587 305
q-1 118 -82.5 200t-197.5 82q-115 0 -197.5 -82.5t-82.5 -197.5t82.5 -197.5t197.5 -82.5q116 0 197.5 81.5t82.5 196.5z" />
    <glyph glyph-name="adieresis" unicode="&#xe4;" horiz-adv-x="797" 
d="M340 751q0 27 27 27q28 0 28 -27t-28 -27q-27 0 -27 27zM228 751q0 27 27 27q28 0 28 -27t-28 -27q-27 0 -27 27zM587 0v181q-22 -50 -63 -91q-90 -90 -217 -90t-217 90t-90 217q0 126 90 216t217 90t217 -90q41 -41 63 -91v181h26v-613h-26zM587 305q-1 118 -82.5 200
t-197.5 82q-115 0 -197.5 -82.5t-82.5 -197.5t82.5 -197.5t197.5 -82.5q116 0 197.5 81.5t82.5 196.5z" />
    <glyph glyph-name="aring" unicode="&#xe5;" horiz-adv-x="797" 
d="M311 655q-28 0 -47.5 19.5t-19.5 47.5t19.5 48t47.5 20t48 -20t20 -48t-20 -47.5t-48 -19.5zM311 768q-19 0 -32.5 -13.5t-13.5 -32.5t13.5 -32.5t32.5 -13.5t32.5 13.5t13.5 32.5t-13.5 32.5t-32.5 13.5zM587 0v181q-22 -50 -63 -91q-90 -90 -217 -90t-217 90t-90 217
q0 126 90 216t217 90t217 -90q41 -41 63 -91v181h26v-613h-26zM587 305q-1 118 -82.5 200t-197.5 82q-115 0 -197.5 -82.5t-82.5 -197.5t82.5 -197.5t197.5 -82.5q116 0 197.5 81.5t82.5 196.5z" />
    <glyph glyph-name="ae" unicode="&#xe6;" horiz-adv-x="1310" 
d="M1210 328h-584q-10 -121 74 -211t205 -90q77 0 144.5 40t104.5 107h28q-41 -75 -118 -124.5t-159 -49.5q-127 0 -217 90q-41 41 -66 97v-187h-26v181q-22 -50 -63 -91q-90 -90 -217 -90t-217 90t-90 217q0 126 90 216t217 90t217 -90q41 -41 63 -91v181h26v-186
q25 55 66 96q90 90 217 90q121 0 209 -82q86 -80 96 -203zM905 587q-103 0 -181 -66.5t-95 -165.5h552q-17 99 -95.5 165.5t-180.5 66.5zM596 305q-1 118 -82.5 200t-197.5 82t-198 -82.5t-82 -197.5t82 -197.5t198 -82.5t197.5 81.5t82.5 196.5z" />
    <glyph glyph-name="ccedilla" unicode="&#xe7;" horiz-adv-x="736" 
d="M321 -21q35 -4 59 -30.5t24 -62.5q0 -39 -27.5 -66.5t-66.5 -27.5v21q30 0 51.5 21.5t21.5 51.5q0 31 -23 51.5t-61 21.5v41q-122 3 -209 90q-90 90 -90 217q0 126 90 216t217 90q74 0 136 -31q61 -31 116 -101h-32q-40 51 -97.5 78.5t-122.5 27.5q-115 0 -197.5 -82.5
t-82.5 -197.5t82.5 -197.5t197.5 -82.5q75 0 140 36t103 99h29q-50 -81 -119 -121q-64 -38 -139 -41v-21z" />
    <glyph glyph-name="egrave" unicode="&#xe8;" horiz-adv-x="767" 
d="M612 328h-584q-10 -121 74 -211t205 -90q77 0 144.5 40t104.5 107h28q-41 -75 -118 -124.5t-159 -49.5q-127 0 -217 90t-90 217q0 126 90 216t217 90q121 0 209 -82q86 -80 96 -203zM307 587q-103 0 -181 -66.5t-95 -165.5h552q-17 99 -95.5 165.5t-180.5 66.5zM312 716
l-106 137h32l106 -137h-32z" />
    <glyph glyph-name="eacute" unicode="&#xe9;" horiz-adv-x="767" 
d="M389 857l-109 -140h-33l109 140h33zM612 328h-584q-10 -121 74 -211t205 -90q77 0 144.5 40t104.5 107h28q-41 -75 -118 -124.5t-159 -49.5q-127 0 -217 90t-90 217q0 126 90 216t217 90q121 0 209 -82q86 -80 96 -203zM307 587q-103 0 -181 -66.5t-95 -165.5h552
q-17 99 -95.5 165.5t-180.5 66.5z" />
    <glyph glyph-name="ecircumflex" unicode="&#xea;" horiz-adv-x="767" 
d="M315 851l106 -137h-32l-90 116l-93 -119h-33l109 140h33zM612 328h-584q-10 -121 74 -211t205 -90q77 0 144.5 40t104.5 107h28q-41 -75 -118 -124.5t-159 -49.5q-127 0 -217 90t-90 217q0 126 90 216t217 90q121 0 209 -82q86 -80 96 -203zM307 587q-103 0 -181 -66.5
t-95 -165.5h552q-17 99 -95.5 165.5t-180.5 66.5z" />
    <glyph glyph-name="edieresis" unicode="&#xeb;" horiz-adv-x="767" 
d="M337 751q0 27 27 27q28 0 28 -27t-28 -27q-27 0 -27 27zM225 751q0 27 27 27q28 0 28 -27t-28 -27q-27 0 -27 27zM612 328h-584q-10 -121 74 -211t205 -90q77 0 144.5 40t104.5 107h28q-41 -75 -118 -124.5t-159 -49.5q-127 0 -217 90t-90 217q0 126 90 216t217 90
q121 0 209 -82q86 -80 96 -203zM307 587q-103 0 -181 -66.5t-95 -165.5h552q-17 99 -95.5 165.5t-180.5 66.5z" />
    <glyph glyph-name="igrave" unicode="&#xec;" horiz-adv-x="345" 
d="M27 613v-613h-27v613h27zM42 716l-106 137h32l106 -137h-32z" />
    <glyph glyph-name="iacute" unicode="&#xed;" horiz-adv-x="345" 
d="M27 613v-613h-27v613h27zM94 857l-109 -140h-33l109 140h33z" />
    <glyph glyph-name="icircumflex" unicode="&#xee;" horiz-adv-x="345" 
d="M27 613v-613h-27v613h27zM30 851l106 -137h-32l-90 116l-93 -119h-33l109 140h33z" />
    <glyph glyph-name="idieresis" unicode="&#xef;" horiz-adv-x="345" 
d="M27 613v-613h-27v613h27zM40 751q0 27 27 27q28 0 28 -27t-28 -27q-27 0 -27 27zM-72 751q0 27 27 27q28 0 28 -27t-28 -27q-27 0 -27 27z" />
    <glyph glyph-name="ntilde" unicode="&#xf1;" 
d="M523 383v-383h-25v382q0 83 -70.5 142t-170.5 59q-94 0 -159.5 -55t-70.5 -136v-392h-27v613h27v-129q19 36 47 59q75 66 183 66t187 -66q79 -67 79 -160zM205 770q-19 -4 -37 -42l-19 9q23 47 51 54q25 6 65.5 -26t59.5 -27q19 4 37 44l19 -8q-23 -50 -51 -57
q-24 -6 -64.5 26t-60.5 27z" />
    <glyph glyph-name="ograve" unicode="&#xf2;" horiz-adv-x="736" 
d="M307 0q-127 0 -217 90t-90 217q0 126 90 216t217 90t217 -90q89 -89 89 -216q0 -128 -89 -217q-90 -90 -217 -90zM587 307q0 115 -82.5 197.5t-197.5 82.5t-197.5 -82.5t-82.5 -197.5t82.5 -197.5t197.5 -82.5t197.5 82.5t82.5 197.5zM315 716l-106 137h32l106 -137h-32z
" />
    <glyph glyph-name="oacute" unicode="&#xf3;" horiz-adv-x="736" 
d="M307 0q-127 0 -217 90t-90 217q0 126 90 216t217 90t217 -90q89 -89 89 -216q0 -128 -89 -217q-90 -90 -217 -90zM587 307q0 115 -82.5 197.5t-197.5 82.5t-197.5 -82.5t-82.5 -197.5t82.5 -197.5t197.5 -82.5t197.5 82.5t82.5 197.5zM380 857l-109 -140h-33l109 140h33z
" />
    <glyph glyph-name="ocircumflex" unicode="&#xf4;" horiz-adv-x="736" 
d="M307 0q-127 0 -217 90t-90 217q0 126 90 216t217 90t217 -90q89 -89 89 -216q0 -128 -89 -217q-90 -90 -217 -90zM587 307q0 115 -82.5 197.5t-197.5 82.5t-197.5 -82.5t-82.5 -197.5t82.5 -197.5t197.5 -82.5t197.5 82.5t82.5 197.5zM321 851l106 -137h-32l-90 116
l-93 -119h-33l109 140h33z" />
    <glyph glyph-name="otilde" unicode="&#xf5;" horiz-adv-x="736" 
d="M307 0q-127 0 -217 90t-90 217q0 126 90 216t217 90t217 -90q89 -89 89 -216q0 -128 -89 -217q-90 -90 -217 -90zM587 307q0 115 -82.5 197.5t-197.5 82.5t-197.5 -82.5t-82.5 -197.5t82.5 -197.5t197.5 -82.5t197.5 82.5t82.5 197.5zM247 770q-19 -4 -37 -42l-19 9
q23 47 51 54q25 6 65.5 -26t59.5 -27q19 4 37 44l19 -8q-23 -50 -51 -57q-24 -6 -64.5 26t-60.5 27z" />
    <glyph glyph-name="odieresis" unicode="&#xf6;" horiz-adv-x="736" 
d="M307 0q-127 0 -217 90t-90 217q0 126 90 216t217 90t217 -90q89 -89 89 -216q0 -128 -89 -217q-90 -90 -217 -90zM587 307q0 115 -82.5 197.5t-197.5 82.5t-197.5 -82.5t-82.5 -197.5t82.5 -197.5t197.5 -82.5t197.5 82.5t82.5 197.5zM336 751q0 27 27 27q28 0 28 -27
t-28 -27q-27 0 -27 27zM224 751q0 27 27 27q28 0 28 -27t-28 -27q-27 0 -27 27z" />
    <glyph glyph-name="divide" unicode="&#xf7;" horiz-adv-x="476" 
d="M69 315v27h305v-27h-305zM181 444q0 37 38 37t38 -37q0 -38 -38 -38t-38 38zM184 203q0 37 38 37t38 -37q0 -38 -38 -38t-38 38z" />
    <glyph glyph-name="oslash" unicode="&#xf8;" horiz-adv-x="736" 
d="M615 615l-89 -94q87 -89 87 -214q0 -128 -89 -217q-90 -90 -217 -90q-118 0 -204 77l-73 -77h-33l89 94q-86 88 -86 213q0 126 90 216t217 90q114 0 201 -76l74 78h33zM587 307q0 112 -80 195l-385 -405q78 -70 185 -70q115 0 197.5 82.5t82.5 197.5zM27 307
q0 -112 78 -193l385 404q-79 69 -183 69q-115 0 -197.5 -82.5t-82.5 -197.5z" />
    <glyph glyph-name="ugrave" unicode="&#xf9;" horiz-adv-x="777" 
d="M306 0q-98 0 -178 57q-114 83 -128 238v318h27v-285q0 -127 74 -211t206 -90q126 3 201.5 88t77.5 213v285h27v-296q-6 -133 -77 -213q-83 -99 -230 -104zM310 716l-106 137h32l106 -137h-32z" />
    <glyph glyph-name="uacute" unicode="&#xfa;" horiz-adv-x="777" 
d="M306 0q-98 0 -178 57q-114 83 -128 238v318h27v-285q0 -127 74 -211t206 -90q126 3 201.5 88t77.5 213v285h27v-296q-6 -133 -77 -213q-83 -99 -230 -104zM380 857l-109 -140h-33l109 140h33z" />
    <glyph glyph-name="ucircumflex" unicode="&#xfb;" horiz-adv-x="777" 
d="M306 0q-98 0 -178 57q-114 83 -128 238v318h27v-285q0 -127 74 -211t206 -90q126 3 201.5 88t77.5 213v285h27v-296q-6 -133 -77 -213q-83 -99 -230 -104zM317 851l106 -137h-32l-90 116l-93 -119h-33l109 140h33z" />
    <glyph glyph-name="udieresis" unicode="&#xfc;" horiz-adv-x="777" 
d="M306 0q-98 0 -178 57q-114 83 -128 238v318h27v-285q0 -127 74 -211t206 -90q126 3 201.5 88t77.5 213v285h27v-296q-6 -133 -77 -213q-83 -99 -230 -104zM323 751q0 27 27 27q28 0 28 -27t-28 -27q-27 0 -27 27zM211 751q0 27 27 27q28 0 28 -27t-28 -27q-27 0 -27 27z
" />
    <glyph glyph-name="yacute" unicode="&#xfd;" horiz-adv-x="756" 
d="M306 0q-98 0 -178 57q-128 93 -128 238v318h27l-1 -307q0 -58 20 -103q31 -78 102.5 -127t158.5 -49q82 0 158 50t101 126q10 30 15 132.5t5 190.5v87h26v-523q-4 -70 -36.5 -132.5t-91.5 -105.5q-79 -57 -178 -57q-98 0 -178 57q-78 58 -111 148h29q31 -79 102.5 -128.5
t158.5 -49.5q81 0 154.5 49.5t104.5 126.5q3 5 7.5 16t10.5 58t2 109q-13 -35 -50 -77q-40 -49 -101.5 -76.5t-128.5 -27.5zM382 857l-109 -140h-33l109 140h33z" />
    <glyph glyph-name="ydieresis" unicode="&#xff;" horiz-adv-x="756" 
d="M306 0q-98 0 -178 57q-59 43 -93.5 104t-34.5 134v318h27l-1 -307q0 -111 82 -195t199 -84q82 0 158 50t101 126q10 30 15 132.5t5 190.5v87h26v-523q-5 -111 -76 -191q-41 -49 -102 -76.5t-128 -27.5q-136 0 -230 105q-40 46 -59 100h29q31 -79 102.5 -128.5
t158.5 -49.5q81 0 154.5 49.5t104.5 126.5q3 5 7.5 16t10.5 58t2 109q-13 -35 -50 -77q-40 -49 -101.5 -76.5t-128.5 -27.5zM326 751q0 27 27 27q28 0 28 -27t-28 -27q-27 0 -27 27zM214 751q0 27 27 27q28 0 28 -27t-28 -27q-27 0 -27 27z" />
    <glyph glyph-name="OE" unicode="&#x152;" horiz-adv-x="1390" 
d="M1197 776h-514v-270h514v-26h-514v-453h514v-27h-541v248q-26 -73 -73 -129q-46 -55 -108.5 -87t-132.5 -32q-69 0 -131.5 31.5t-109.5 87.5q-99 118 -99 283q0 164 99 282q46 55 108.5 87t132.5 32q105 0 188 -69t126 -178v247h541v-27zM342 27q130 0 221.5 110
t91.5 265t-91.5 264.5t-221.5 109.5t-221.5 -109.5t-91.5 -264.5t91.5 -265t221.5 -110z" />
    <glyph glyph-name="oe" unicode="&#x153;" horiz-adv-x="1353" 
d="M1205 331h-584q-10 -121 74 -211t205 -90q77 0 144.5 40t104.5 107h28q-41 -75 -118 -124.5t-159 -49.5q-127 0 -217 90q-55 55 -78 130q-21 -73 -76 -130q-90 -90 -217 -90t-217 90t-90 217q0 126 90 216t217 90t217 -90q55 -56 76 -129q23 74 78 129q90 90 217 90
q121 0 209 -82q86 -80 96 -203zM900 590q-103 0 -181 -66.5t-95 -165.5h552q-17 99 -95.5 165.5t-180.5 66.5zM312 30q116 0 198 82t82 198t-82 198t-198 82t-198 -82t-82 -198t82 -198t198 -82z" />
    <glyph glyph-name="Ydieresis" unicode="&#x178;" horiz-adv-x="818" 
d="M695 803l-334 -406v-397h-27v397l-334 406h34l314 -381l313 381h34zM366 930q0 27 27 27q28 0 28 -27t-28 -27q-27 0 -27 27zM254 930q0 27 27 27q28 0 28 -27t-28 -27q-27 0 -27 27z" />
    <glyph glyph-name="circumflex" unicode="&#x2c6;" horiz-adv-x="345" 
d="M165 851l106 -137h-32l-90 116l-93 -119h-33l109 140h33z" />
    <glyph glyph-name="tilde" unicode="&#x2dc;" horiz-adv-x="295" 
d="M72 770q-19 -4 -37 -42l-19 9q22 47 51 54q25 6 65.5 -26t59.5 -27q19 4 37 44l19 -8q-23 -50 -51 -57q-24 -6 -64.5 26t-60.5 27z" />
    <glyph glyph-name="quoteleft" unicode="&#x2018;" horiz-adv-x="230" 
d="M10 684v116h27v-116h-27z" />
    <glyph glyph-name="quoteright" unicode="&#x2019;" horiz-adv-x="230" 
d="M10 684v116h27v-116h-27z" />
    <glyph glyph-name="quotedblleft" unicode="&#x201c;" horiz-adv-x="232" 
d="M0 685v116h27v-116h-27zM77 685v116h27v-116h-27z" />
    <glyph glyph-name="quotedblright" unicode="&#x201d;" horiz-adv-x="232" 
d="M0 685v116h27v-116h-27zM77 685v116h27v-116h-27z" />
    <glyph glyph-name="perthousand" unicode="&#x2030;" horiz-adv-x="1163" 
d="M623 803h33l-626 -803h-33zM549 214q43 0 74.5 -31t31.5 -75t-31.5 -75t-74.5 -31t-74.5 31t-31.5 75t31.5 75t74.5 31zM549 29q33 0 56 23t23 56t-23 56t-56 23t-56 -23t-23 -56t23 -56t56 -23zM109 589q-43 0 -74.5 31.5t-31.5 74.5t31.5 74.5t74.5 31.5t74 -31t31 -75
t-31 -75t-74 -31zM109 774q-33 0 -56 -23t-23 -56t23 -56t56 -23t56 23t23 56t-23 56t-56 23zM851 214q43 0 74.5 -31t31.5 -75t-31.5 -75t-74.5 -31t-74.5 31t-31.5 75t31.5 75t74.5 31zM851 29q33 0 56 23t23 56t-23 56t-56 23t-56 -23t-23 -56t23 -56t56 -23z" />
    <glyph glyph-name="Euro" unicode="&#x20ac;" horiz-adv-x="736" 
d="M2 353q-12 98 24.5 200.5t120.5 176t193 73.5q80 0 156 -43t118 -119h-33q-45 64 -108 99.5t-133 35.5q-118 0 -206 -92t-104 -229h310v-27h-312q-1 -9 -1 -48h314v-27h-311q15 -139 103 -232.5t207 -93.5q67 0 129 33.5t107 94.5h30q-44 -72 -117 -113.5t-149 -41.5
q-133 0 -228 106t-110 247z" />
    <glyph glyph-name="trademark" unicode="&#x2122;" horiz-adv-x="508" 
d="M369 803h18v-194h-19v141l-61 -141h-15l-59 140v-140h-19v194h17l69 -163zM7 784v19h182v-19h-81v-175h-19v175h-82z" />
    </font>
</defs>
</svg>
